# xmcd CD database file
#
# Track frame offsets:
#	150
#	34576
#	58844
#	72246
#	96351
#	120204
#	150819
#	169111
#	194507
#	214874
#	238007
#	261143
#
# Disc length: 3944 seconds
#
# Revision: 1
# Processed by: cddbd v1.5.1PL2 Copyright (c) Steve Scherf et al.
# Submitted via: CDex 1.51
#
DISCID=9f0f660c
DTITLE=Charles Jacobs - Bourbon Street Blues
DYEAR=2001
DGENRE=Blues
TTITLE0=Part Time Love
TTITLE1=Everyday I Have The Blues
TTITLE2=I'll Play The Blues For You
TTITLE3=It's My Own Fault
TTITLE4=The Thrill Is Gone
TTITLE5=Stormy Monday
TTITLE6=Wolf Howl
TTITLE7=Sex Machine
TTITLE8=You Don't Have To Go
TTITLE9=I'm Near As Your Telephone
TTITLE10=To Know You Is To Love You
TTITLE11=Rainy Night In Georgia
EXTD=YEAR: 2001
EXTT0=
EXTT1=
EXTT2=
EXTT3=
EXTT4=
EXTT5=
EXTT6=
EXTT7=
EXTT8=
EXTT9=
EXTT10=
EXTT11=
PLAYORDER=
